

<svg class="icon icon-baked-cake-cup-svgrepo-com-2" viewBox="0 0 32 32">

    <path fill="#f78f4b" style="fill: var(--color1, #f78f4b)" d="M10.089 21.069c0.303 0.098 0.652 0.154 1.014 0.154 0.001 0 0.002 0 0.002 0h-0c1.182 0 2.223-0.604 2.831-1.52 0.609 0.916 1.65 1.52 2.832 1.52s2.223-0.604 2.832-1.52c0.609 0.916 1.649 1.52 2.831 1.52 0.354 0 0.696-0.054 1.016-0.154l-1.582 7.517h-10.194l-1.583-7.517z"></path>
    <path fill="#e2773b" style="fill: var(--color2, #e2773b)" d="M10.852 21.752c0.303 0.098 0.652 0.154 1.014 0.154 0.001 0 0.002 0 0.002 0h-0c1.144 0 2.155-0.567 2.771-1.434-0.271-0.22-0.503-0.473-0.694-0.756l-0.008-0.012c-0.608 0.916-1.649 1.52-2.831 1.52-0.354 0-0.696-0.054-1.016-0.154l1.582 7.517h0.619l-1.439-6.834zM23.194 21.907c0.026 0 0.052-0.001 0.078-0.001l0.176-0.836c-0.303 0.098-0.652 0.154-1.014 0.154-0.001 0-0.002 0-0.002 0h0c-0.001 0-0.002 0-0.004 0-0.69 0-1.331-0.207-1.866-0.562l0.012 0.008c0.623 0.755 1.565 1.237 2.62 1.237zM17.531 21.907c1.145 0 2.155-0.567 2.771-1.434-0.271-0.22-0.503-0.473-0.694-0.756l-0.008-0.012c-0.609 0.916-1.649 1.52-2.832 1.52-0.001 0-0.002 0-0.003 0-0.69 0-1.332-0.207-1.867-0.562l0.012 0.008c0.623 0.755 1.565 1.237 2.62 1.237z"></path>
    <path fill="#ef3e5c" style="fill: var(--color3, #ef3e5c)" d="M9.406 5.933c0.626 0 1.133 0.507 1.133 1.133s-0.507 1.133-1.133 1.133c-0.625 0-1.133-0.507-1.133-1.133s0.508-1.133 1.133-1.133z"></path>
    <path fill="#d63054" style="fill: var(--color4, #d63054)" d="M8.586 7.8c0-0.626 0.508-1.133 1.133-1.133 0.322 0 0.612 0.135 0.818 0.35-0.025-0.603-0.521-1.085-1.131-1.085-0.625 0-1.133 0.507-1.133 1.133 0 0.304 0.12 0.579 0.315 0.782-0.001-0.016-0.002-0.032-0.002-0.048z"></path>
    <path fill="#ef3e5c" style="fill: var(--color3, #ef3e5c)" d="M18.94 9.249c-0.592 0.543-1.241 1.119-1.89 1.781-0.714-0.728-1.429-1.354-2.067-1.944-1.308-1.209-2.293-2.271-2.293-3.764 0-1.226 0.976-2.221 2.18-2.221 1.089 0 1.634 0.556 2.179 1.666 0.545-1.111 1.090-1.666 2.18-1.666 1.206 0 2.182 0.995 2.182 2.221 0 1.56-1.076 2.648-2.472 3.927z"></path>
    <path fill="#d63054" style="fill: var(--color4, #d63054)" d="M16.087 9.652c-1.308-1.209-2.293-2.271-2.293-3.764 0-1.226 0.976-2.221 2.18-2.221 0.134 0 0.259 0.009 0.377 0.025-0.377-0.393-0.832-0.592-1.48-0.592-1.204 0-2.18 0.995-2.18 2.221 0 1.493 0.985 2.554 2.293 3.764 0.638 0.59 1.353 1.216 2.067 1.944 0.086-0.088 0.17-0.171 0.254-0.255l0.003-0.002c-0.423-0.396-0.836-0.765-1.22-1.12z"></path>
    <path fill="#ffecb2" style="fill: var(--color5, #ffecb2)" d="M14.983 9.086c0.638 0.59 1.352 1.216 2.067 1.944 0.649-0.662 1.298-1.238 1.89-1.781 1.729 0.816 2.925 2.574 2.925 4.612 0 0.211-0.013 0.418-0.038 0.621 0.196-0.035 0.397-0.054 0.604-0.054 1.877 0 3.398 1.521 3.398 3.398 0 1.523-1.001 2.811-2.382 3.244-0.303 0.098-0.652 0.154-1.014 0.154-0.001 0-0.002 0-0.002 0h0c-1.182 0-2.223-0.604-2.831-1.52-0.609 0.916-1.649 1.52-2.832 1.52s-2.223-0.604-2.832-1.52c-0.608 0.916-1.649 1.52-2.831 1.52-0.354 0-0.696-0.054-1.016-0.154-1.38-0.433-2.382-1.721-2.382-3.244 0-1.876 1.521-3.398 3.398-3.398 0.206 0 0.408 0.019 0.604 0.054-0.024-0.186-0.037-0.402-0.038-0.621v-0c0-2.187 1.378-4.052 3.312-4.775z"></path>
    <path fill="#e5cf93" style="fill: var(--color6, #e5cf93)" d="M8.274 18.534c0-1.876 1.521-3.398 3.398-3.398 0.206 0 0.408 0.019 0.604 0.054-0.024-0.186-0.037-0.402-0.038-0.621v-0c0-2.187 1.377-4.052 3.312-4.775 0.638 0.59 1.352 1.216 2.067 1.944 0.649-0.662 1.298-1.238 1.89-1.781 0.588 0.282 1.089 0.648 1.511 1.090l0.002 0.002c-0.513-0.775-1.232-1.401-2.079-1.801-0.592 0.543-1.241 1.119-1.89 1.781-0.714-0.728-1.429-1.354-2.067-1.944-1.934 0.723-3.312 2.588-3.312 4.775 0 0.211 0.013 0.418 0.038 0.621-0.196-0.035-0.398-0.054-0.604-0.054-1.877 0-3.398 1.521-3.398 3.398 0 0.966 0.403 1.837 1.050 2.455-0.303-0.497-0.483-1.099-0.483-1.742 0-0.002 0-0.003 0-0.005v0zM22.432 17.826c0.313 0 0.566 0.254 0.566 0.567s-0.253 0.566-0.566 0.566c-0.313 0-0.566-0.254-0.566-0.566s0.254-0.567 0.566-0.567zM17.901 14.428c0.313 0 0.566 0.253 0.566 0.566s-0.253 0.566-0.566 0.566c-0.313 0-0.566-0.254-0.566-0.566s0.254-0.566 0.566-0.566z"></path>
    <path fill="#e5cf93" style="fill: var(--color6, #e5cf93)" d="M13.937 12.729c0.313 0 0.567 0.254 0.567 0.566s-0.254 0.566-0.567 0.566c-0.313 0-0.566-0.253-0.566-0.566s0.254-0.566 0.566-0.566zM13.37 16.127c0.313 0 0.566 0.254 0.566 0.566s-0.253 0.566-0.566 0.566c-0.313 0-0.566-0.254-0.566-0.566s0.254-0.566 0.566-0.566zM10.539 17.259c0.313 0 0.566 0.254 0.566 0.566s-0.254 0.567-0.566 0.567c-0.313 0-0.566-0.254-0.566-0.567s0.253-0.566 0.566-0.566z"></path>
    <path fill="#e2773b" style="fill: var(--color2, #e2773b)" d="M20.167 28.899c-0.173 0-0.313-0.14-0.313-0.313v0-5.663c0-0.173 0.14-0.313 0.313-0.313s0.313 0.14 0.313 0.313v5.663c0 0.173-0.14 0.313-0.313 0.313v0zM18.467 28.899c-0.173 0-0.313-0.14-0.313-0.313v0-3.398c0-0.173 0.14-0.313 0.313-0.313s0.313 0.14 0.313 0.313v3.398c0 0.173-0.14 0.313-0.313 0.313v0zM16.768 28.899c-0.173 0-0.313-0.14-0.313-0.313v0-5.663c0-0.173 0.14-0.313 0.313-0.313s0.313 0.14 0.313 0.313v5.663c0 0.173-0.14 0.313-0.313 0.313v0zM15.070 28.899c-0.173 0-0.313-0.14-0.313-0.313v0-3.398c0-0.173 0.14-0.313 0.313-0.313s0.313 0.14 0.313 0.313v0 3.398c0 0.173-0.14 0.313-0.313 0.313v0zM13.37 28.899c-0.173 0-0.313-0.14-0.313-0.313v0-5.663c0-0.173 0.14-0.313 0.313-0.313s0.313 0.14 0.313 0.313v0 5.663c0 0.173-0.14 0.313-0.313 0.313v0z"></path>
    <path fill="#ef3e5c" style="fill: var(--color3, #ef3e5c)" d="M6.515 10.836c0.626 0 1.133 0.507 1.133 1.133s-0.507 1.133-1.133 1.133c-0.625 0-1.133-0.507-1.133-1.133s0.508-1.133 1.133-1.133z"></path>
    <path fill="#d63054" style="fill: var(--color4, #d63054)" d="M5.695 12.703c0-0.626 0.508-1.133 1.133-1.133 0.322 0 0.612 0.135 0.818 0.35-0.025-0.603-0.521-1.085-1.131-1.085-0.625 0-1.133 0.507-1.133 1.133 0 0.304 0.12 0.579 0.315 0.782-0.001-0.016-0.002-0.032-0.002-0.048z"></path>
    <path fill="#ef3e5c" style="fill: var(--color3, #ef3e5c)" d="M25.484 10.21c0.626 0 1.133 0.507 1.133 1.133s-0.507 1.133-1.133 1.133c-0.625 0-1.133-0.507-1.133-1.133s0.508-1.133 1.133-1.133z"></path>
    <path fill="#d63054" style="fill: var(--color4, #d63054)" d="M24.664 12.077c0-0.626 0.508-1.133 1.133-1.133 0.322 0 0.612 0.135 0.818 0.35-0.025-0.603-0.521-1.085-1.131-1.085-0.625 0-1.133 0.507-1.133 1.133 0 0.304 0.12 0.579 0.315 0.782-0.001-0.016-0.002-0.032-0.002-0.048z"></path>
    <path fill="#ffecb2" style="fill: var(--color5, #ffecb2)" d="M25.83 28.899h-18.122c-0.173 0-0.313-0.14-0.313-0.313s0.14-0.313 0.313-0.313h18.122c0.173 0 0.313 0.14 0.313 0.313s-0.14 0.313-0.313 0.313z"></path>
   
</svg>
